<svg viewBox="0 0 400 400" xmlns="http://www.w3.org/2000/svg">
  <defs>
    <radialGradient id="coinGradient" cx="40%" cy="40%">
      <stop offset="0%" style="stop-color:#fcd34d;stop-opacity:1" />
      <stop offset="70%" style="stop-color:#f59e0b;stop-opacity:1" />
      <stop offset="100%" style="stop-color:#d97706;stop-opacity:1" />
    </radialGradient>
    <filter id="shadow" x="-50%" y="-50%" width="200%" height="200%">
      <feDropShadow dx="0" dy="10" stdDeviation="8" flood-opacity="0.3" />
    </filter>
    <filter id="glow">
      <feGaussianBlur stdDeviation="3" result="coloredBlur"/>
      <feMerge>
        <feMergeNode in="coloredBlur"/>
        <feMergeNode in="SourceGraphic"/>
      </feMerge>
    </filter>
  </defs>

  <rect width="400" height="400" fill="transparent"/>

  <!-- 本体 -->
  <circle cx="200" cy="220" r="140" fill="url(#coinGradient)" filter="url(#shadow)"/>
  <ellipse cx="200" cy="150" rx="110" ry="50" fill="#ffffff" opacity="0.35"/>
  <circle cx="200" cy="220" r="140" fill="none" stroke="#d97706" stroke-width="3" opacity="0.2"/>

  <!-- 王冠 -->
  <g filter="url(#glow)">
    <path d="M 150 100 L 160 60 L 175 75 L 200 45 L 225 75 L 240 60 L 250 100 Z"
          fill="#1e3a8a" stroke="#0f172a" stroke-width="2"/>
    <circle cx="160" cy="65" r="6" fill="#f59e0b"/>
    <circle cx="200" cy="50" r="8" fill="#fcd34d"/>
    <circle cx="240" cy="65" r="6" fill="#f59e0b"/>
    <rect x="160" y="95" width="80" height="8" fill="#1e3a8a"/>
  </g>

  <!-- バッジ -->
  <g>
    <rect x="165" y="280" width="70" height="70" rx="8" fill="#10b981" stroke="#059669" stroke-width="2"/>
    <text x="200" y="330" font-size="50" text-anchor="middle" dominant-baseline="middle">💰</text>
  </g>

  <!-- 左目（？マーク） -->
  <g>
    <ellipse cx="160" cy="200" rx="28" ry="32" fill="#ffffff" stroke="#333333" stroke-width="2"/>
    <text x="160" y="210" font-size="32" text-anchor="middle" dominant-baseline="middle" fill="#1f2937" font-weight="bold">?</text>
  </g>

  <!-- 右目（？マーク） -->
  <g>
    <ellipse cx="240" cy="200" rx="28" ry="32" fill="#ffffff" stroke="#333333" stroke-width="2"/>
    <text x="240" y="210" font-size="32" text-anchor="middle" dominant-baseline="middle" fill="#1f2937" font-weight="bold">?</text>
  </g>

  <!-- 眉毛（ハの字 - 思考） -->
  <g>
    <path d="M 130 175 Q 160 165 190 175" stroke="#333333" stroke-width="5" fill="none" stroke-linecap="round"/>
    <path d="M 210 175 Q 240 165 270 175" stroke="#333333" stroke-width="5" fill="none" stroke-linecap="round"/>
  </g>

  <!-- 鼻 -->
  <circle cx="200" cy="225" r="5" fill="#f59e0b" opacity="0.6"/>

  <!-- 口（真顔 - ー） -->
  <g>
    <line x1="170" y1="260" x2="230" y2="260" stroke="#1f2937" stroke-width="4" stroke-linecap="round"/>
  </g>

  <!-- 左腕（あごに手を当てる） -->
  <g>
    <rect x="80" y="220" width="70" height="40" rx="20" fill="#f59e0b" stroke="#d97706" stroke-width="2"/>
    <circle cx="85" cy="240" r="25" fill="#f59e0b" stroke="#d97706" stroke-width="2"/>
    <circle cx="88" cy="235" r="8" fill="#ffffff" opacity="0.4"/>
  </g>

  <!-- 右腕（自然） -->
  <g>
    <rect x="250" y="240" width="90" height="45" rx="22" fill="#f59e0b" stroke="#d97706" stroke-width="2"/>
    <circle cx="340" cy="262" r="28" fill="#f59e0b" stroke="#d97706" stroke-width="2"/>
    <circle cx="338" cy="258" r="8" fill="#ffffff" opacity="0.4"/>
  </g>

  <!-- 左足 -->
  <g>
    <rect x="150" y="350" width="50" height="50" rx="15" fill="#f59e0b" stroke="#d97706" stroke-width="2"/>
    <circle cx="165" cy="385" r="5" fill="#ffffff" opacity="0.3"/>
    <circle cx="180" cy="387" r="5" fill="#ffffff" opacity="0.3"/>
  </g>

  <!-- 右足 -->
  <g>
    <rect x="200" y="350" width="50" height="50" rx="15" fill="#f59e0b" stroke="#d97706" stroke-width="2"/>
    <circle cx="215" cy="385" r="5" fill="#ffffff" opacity="0.3"/>
    <circle cx="230" cy="387" r="5" fill="#ffffff" opacity="0.3"/>
  </g>

  <!-- 装飾: 思考中を表す💭 -->
  <g opacity="0.7" filter="url(#glow)">
    <text x="310" y="100" font-size="35">💭</text>
  </g>
</svg>