<svg viewBox="0 0 400 400" xmlns="http://www.w3.org/2000/svg">
  <defs>
    <radialGradient id="coinGradient" cx="40%" cy="40%">
      <stop offset="0%" style="stop-color:#fcd34d;stop-opacity:1" />
      <stop offset="70%" style="stop-color:#f59e0b;stop-opacity:1" />
      <stop offset="100%" style="stop-color:#d97706;stop-opacity:1" />
    </radialGradient>
    <filter id="shadow" x="-50%" y="-50%" width="200%" height="200%">
      <feDropShadow dx="0" dy="10" stdDeviation="8" flood-opacity="0.3" />
    </filter>
    <filter id="glow">
      <feGaussianBlur stdDeviation="3" result="coloredBlur"/>
      <feMerge>
        <feMergeNode in="coloredBlur"/>
        <feMergeNode in="SourceGraphic"/>
      </feMerge>
    </filter>
  </defs>

  <rect width="400" height="400" fill="transparent"/>

  <circle cx="200" cy="220" r="140" fill="url(#coinGradient)" filter="url(#shadow)"/>
  <ellipse cx="200" cy="150" rx="110" ry="50" fill="#ffffff" opacity="0.35"/>
  <circle cx="200" cy="220" r="140" fill="none" stroke="#d97706" stroke-width="3" opacity="0.2"/>

  <!-- 王冠 -->
  <g filter="url(#glow)">
    <path d="M 150 100 L 160 60 L 175 75 L 200 45 L 225 75 L 240 60 L 250 100 Z"
          fill="#1e3a8a" stroke="#0f172a" stroke-width="2"/>
    <circle cx="160" cy="65" r="6" fill="#f59e0b"/>
    <circle cx="200" cy="50" r="8" fill="#fcd34d"/>
    <circle cx="240" cy="65" r="6" fill="#f59e0b"/>
    <rect x="160" y="95" width="80" height="8" fill="#1e3a8a"/>
  </g>

  <!-- バッジ -->
  <g>
    <rect x="165" y="280" width="70" height="70" rx="8" fill="#10b981" stroke="#059669" stroke-width="2"/>
    <text x="200" y="330" font-size="50" text-anchor="middle" dominant-baseline="middle">💰</text>
  </g>

  <!-- 左目（光✨） -->
  <g>
    <ellipse cx="160" cy="200" rx="28" ry="32" fill="#ffffff" stroke="#333333" stroke-width="2"/>
    <text x="160" y="215" font-size="28" text-anchor="middle">✨</text>
  </g>

  <!-- 右目（光✨） -->
  <g>
    <ellipse cx="240" cy="200" rx="28" ry="32" fill="#ffffff" stroke="#333333" stroke-width="2"/>
    <text x="240" y="215" font-size="28" text-anchor="middle">✨</text>
  </g>

  <!-- 眉毛（上昇 - 応援） -->
  <g>
    <path d="M 130 170 Q 160 155 190 170" stroke="#333333" stroke-width="5" fill="none" stroke-linecap="round"/>
    <path d="M 210 170 Q 240 155 270 170" stroke="#333333" stroke-width="5" fill="none" stroke-linecap="round"/>
  </g>

  <!-- 鼻 -->
  <circle cx="200" cy="225" r="5" fill="#f59e0b" opacity="0.6"/>

  <!-- 口（応援の笑み） -->
  <g>
    <path d="M 170 255 Q 200 275 230 255" stroke="#f59e0b" stroke-width="6" fill="none" stroke-linecap="round"/>
    <path d="M 170 255 Q 200 273 230 255" stroke="#fb923c" stroke-width="3" fill="none" stroke-linecap="round"/>
  </g>

  <!-- 左腕（胸前で合わせる - 応援） -->
  <g>
    <line x1="100" y1="240" x2="150" y2="220" stroke="#f59e0b" stroke-width="35" stroke-linecap="round"/>
    <circle cx="145" cy="215" r="30" fill="#f59e0b" stroke="#d97706" stroke-width="2"/>
  </g>

  <!-- 右腕（胸前で合わせる - 応援） -->
  <g>
    <line x1="300" y1="240" x2="250" y2="220" stroke="#f59e0b" stroke-width="35" stroke-linecap="round"/>
    <circle cx="255" cy="215" r="30" fill="#f59e0b" stroke="#d97706" stroke-width="2"/>
  </g>

  <!-- 左足 -->
  <g>
    <rect x="150" y="350" width="50" height="50" rx="15" fill="#f59e0b" stroke="#d97706" stroke-width="2"/>
    <circle cx="165" cy="385" r="5" fill="#ffffff" opacity="0.3"/>
    <circle cx="180" cy="387" r="5" fill="#ffffff" opacity="0.3"/>
  </g>

  <!-- 右足 -->
  <g>
    <rect x="200" y="350" width="50" height="50" rx="15" fill="#f59e0b" stroke="#d97706" stroke-width="2"/>
    <circle cx="215" cy="385" r="5" fill="#ffffff" opacity="0.3"/>
    <circle cx="230" cy="387" r="5" fill="#ffffff" opacity="0.3"/>
  </g>

  <!-- 装飾: ハート -->
  <g opacity="0.8" filter="url(#glow)">
    <text x="90" y="150" font-size="35">💗</text>
    <text x="310" y="160" font-size="35">💗</text>
  </g>
</svg>